<svg xmlns="http://www.w3.org/2000/svg" width="1000" height="460" viewBox="0 0 1000 460" role="img" aria-labelledby="title desc">
  <title id="title">Total Tokens By Variant</title>
  <desc id="desc">Horizontal bar chart. Token axis starts at zero and runs to 26000. Generalist used 4298 tokens, Fixed chain used 15090 tokens, Dynamic council used 25785 tokens.</desc>
  <rect width="1000" height="460" fill="#ffffff"/>
  <text x="40" y="42" font-family="Arial, sans-serif" font-size="30" font-weight="700" fill="#172033">Total Tokens</text>
  <text x="40" y="76" font-family="Arial, sans-serif" font-size="17" fill="#475569">Provider-reported total tokens. Axis starts at zero.</text>

  <line x1="250" y1="380" x2="850" y2="380" stroke="#334155" stroke-width="2"/>
  <g font-family="Arial, sans-serif" font-size="15" fill="#475569">
    <line x1="250" y1="374" x2="250" y2="386" stroke="#334155"/>
    <line x1="480.8" y1="374" x2="480.8" y2="386" stroke="#334155"/>
    <line x1="711.5" y1="374" x2="711.5" y2="386" stroke="#334155"/>
    <line x1="850" y1="374" x2="850" y2="386" stroke="#334155"/>
    <text x="246" y="410">0</text>
    <text x="455" y="410">10,000</text>
    <text x="686" y="410">20,000</text>
    <text x="824" y="410">26,000</text>
  </g>

  <g font-family="Arial, sans-serif" font-size="20" fill="#172033">
    <text x="40" y="139" font-weight="700">Generalist</text>
    <rect x="250" y="110" width="99.2" height="52" rx="4" fill="#2563eb"/>
    <text x="365" y="143" font-weight="700">4,298</text>

    <text x="40" y="229" font-weight="700">Fixed chain</text>
    <rect x="250" y="200" width="348.2" height="52" rx="4" fill="#64748b"/>
    <text x="614" y="233" font-weight="700">15,090</text>

    <text x="40" y="319" font-weight="700">Dynamic council</text>
    <rect x="250" y="290" width="595.0" height="52" rx="4" fill="#059669"/>
    <text x="861" y="323" font-weight="700">25,785</text>
  </g>
</svg>
